<?xml version="1.0" encoding="UTF-8"?>
<svg id="Layer_2" data-name="Layer 2" xmlns="http://www.w3.org/2000/svg" viewBox="0 0 488.51 205.36">
  <defs>
    <style>
      .cls-1 {
        fill: #ac88be;
      }

      .cls-1, .cls-2 {
        stroke: #fff;
        stroke-miterlimit: 10;
      }

      .cls-2 {
        fill: none;
      }
    </style>
  </defs>
  <g id="Layer_1-2" data-name="Layer 1">
    <g>
      <path class="cls-1" d="M198.17,12.73c-1.46-1.3-17.31-15.03-38.89-11.71-13.74,2.11-33.22,11.67-33.11,24.88.06,7.35,6.18,13.08,9.66,15.83,6.51,6.76,16.44,18.84,22.8,36.48.99,2.73,4.51,12.87,5.76,27.19,3.12,35.72-10.93,62.74-17.56,70.2-6.16,6.95-8.85,9.13-8.85,9.13-4.88,3.95-7.37,4.5-7.78,6.97-.73,4.3,5.71,8.89,9.39,10.73,1.55.79,7.75,3.9,14.48,1.61,4.22-1.43,7.14-4.47,10.47-9.65,4.04-6.3,8.22-15.43,11.27-30.05.97-4.67,3.31-17.44,1.87-34.08-.84-9.76-2.73-17.83-4.44-23.67-.7-3.53-1.12-8.7,1.73-12.65,5.43-7.52,17.12-2,26.61-8.74,11.74-8.33,12.28-25.93,12.47-32.04.15-4.61.8-25.49-15.88-40.43ZM191.59,58.26c-2.94,3.5-10.96,5.41-15.34,2.41-.8-.55-1.27-1.12-1.48-1.37-13.78-16.87-20.67-25.3-17.97-30.93,2.39-4.96,11.34-6.65,17.88-5.03,15.51,3.83,23.01,27.67,16.91,34.92Z"/>
      <g>
        <ellipse class="cls-1" cx="113.62" cy="113.55" rx="49.71" ry="75.14"/>
        <ellipse class="cls-1" cx="70.37" cy="122.48" rx="41.87" ry="86.54" transform="translate(-67.51 91.8) rotate(-47.58)"/>
        <ellipse class="cls-2" cx="113.62" cy="113.93" rx="49.71" ry="75.14"/>
      </g>
      <path class="cls-1" d="M257.53,98.58c4.19,9.32,8.79,23.17,7.85,39.66-1.66,29.07-19.28,43.96-12.17,54.19,5.84,8.41,25.46,9.47,34.94.87,16.14-14.64.8-55.35,6.68-56.94,2.31-.63,5.78,5.39,6.28,6.28,11.53,20.37-5.84,42.42,2.36,51.36,6.27,6.84,25.23,3.59,36.52-5.89,28.04-23.52,11.5-87.61-.39-89.14-4.43-.57-10.04,7.31-11.91,13.87-1.91,6.69.53,10.41,2.49,20.69,1.72,9.01,5.63,29.49-3.94,38.17-3.17,2.87-8.32,4.91-11,3.14-3.74-2.47.04-10.58,0-24.35,0-2.98-.07-26.49-9.02-29.53-4.86-1.65-12.16,2.8-16.13,8.58-10.61,15.44,5.61,35.85-5.08,47.26-2.87,3.06-7.51,5.31-9.82,3.93-3.55-2.12-.51-12.21,2.75-26.7,6.84-30.4,10.12-45.74,3.54-52.7-2.87-3.04-9.03-6.07-23.95-2.75Z"/>
      <path class="cls-1" d="M436.71,197.34c-13.54-5.56,3.55-72.24.38-92.94-.21-1.34-1.02-5.89,1.15-7.75,1.89-1.62,5.89-1.04,7.66,1.22,3.84,4.9-3.3,16.98-2.3,17.53.83.46,4.06-8.75,11.49-14.67,7.47-5.96,21.26-10.24,28.34-2.85,4.41,4.61,6.27,13.81,2.68,18.75-6.1,8.41-21.64-4.21-32.17,4.08-11.83,9.31-13.76,42.14-6.89,59.11.85,2.11,3.26,7.48,1.15,11.82-1.94,3.98-7.74,7.24-11.49,5.71Z"/>
      <path class="cls-1" d="M247.34,112.42c-2.09-3.35-9.63-15.05-23.44-19.19-1.07-.32-22.27-6.31-33.94,8.03-6.7,8.23-3.63,15-8.18,45.9-4.52,30.81-9.61,37.94-4.99,44.42,6.95,9.72,28.22,7.37,37.69,6.32.33-.03.76-.08,1.33-.16,2.57-.34,15.75-2.09,24.65-9.47,10.68-8.84,13.43-24.31,14.47-30.18,1.06-5.93,4-27.1-7.59-45.67ZM236.69,167.52c-5.14,6.88-11.91,8.4-18.67,9.92-6.73,1.51-21.3,4.78-27.25-4.04-5.7-8.47-.09-23.11,7.66-43.33,1.5-3.92,3.6-8.81,7.96-12.85,1.37-1.28,6.4-5.94,12.85-5.87,12.04.13,19.18,16.65,19.9,18.36,4.59,11,5.35,27.37-2.45,37.81Z"/>
      <path class="cls-1" d="M400.74,173.78c-9.64-1.55-15.74-7.82-17.19-9.39-6.47-7.02-11.88-19.77-7.7-25.01,6.89-8.62,32.41,12.33,44.81,2.35,9.31-7.49,9.5-31.07-2.74-41.95-13.18-11.7-35.25-3.83-45.9,6.69-22.37,22.07-12.92,74.08,12.26,86.6,12.76,6.34,33.23,4.36,39.63-6.21,2.81-4.65,3.47-11.87.4-14.72-4.12-3.81-11.31,3.6-23.57,1.64ZM388.99,108.37c.97-.45,9.39-4.27,17.62.39,8.05,4.55,12.29,15.15,9.19,19.91-5.4,8.28-35.46,2.57-37.53-6.89-1.08-4.94,5.46-10.92,10.72-13.41Z"/>
    </g>
  </g>
</svg>