<?xml version="1.0" encoding="UTF-8"?>
<svg id="Layer_2" data-name="Layer 2" xmlns="http://www.w3.org/2000/svg" viewBox="0 0 514.24 489.79">
  <defs>
    <style>
      .cls-1 {
        fill: #ac88be;
      }

      .cls-1, .cls-2 {
        stroke: #fff;
        stroke-miterlimit: 10;
      }

      .cls-2 {
        fill: none;
      }
    </style>
  </defs>
  <g id="Layer_1-2" data-name="Layer 1">
    <g>
      <ellipse class="cls-1" cx="272.3" cy="272.15" rx="119.45" ry="180.56"/>
      <ellipse class="cls-1" cx="168.38" cy="293.6" rx="100.6" ry="207.95" transform="translate(-161.94 219.83) rotate(-47.58)"/>
      <path class="cls-1" d="M475.46,29.89c-3.51-3.14-41.59-36.12-93.43-28.15-33.03,5.08-79.84,28.06-79.56,59.78.15,17.67,14.85,31.43,23.2,38.04,15.64,16.25,39.5,45.28,54.8,87.67,2.37,6.56,10.83,30.9,13.84,65.32,7.49,85.84-26.28,150.75-42.21,168.69-14.8,16.68-21.27,21.92-21.27,21.92-11.72,9.49-17.69,10.82-18.69,16.76-2.47,14.59,20.88,25.05,22.56,25.79,15.42,6.72,30.06,2.17,34.5.79,12.41-3.85,19.95-11.08,27.58-18.38,2.87-2.75,14.26-13.96,22.83-30.58,16.65-32.34,19.81-79.79,9.34-121.66-2.83-11.29-8.98-31.49-11.49-60.89-1.83-21.43.08-26.51,2.27-29.98,11.63-18.44,40.49-4.35,63.94-20.99,28.19-20.01,29.51-62.31,29.96-76.99.35-11.08,1.91-61.26-38.17-97.14ZM459.65,139.29c-7.07,8.4-26.33,12.99-36.85,5.79-1.92-1.32-3.06-2.69-3.56-3.3-33.11-40.53-49.66-60.8-43.17-74.31,5.72-11.92,27.25-15.98,42.96-12.1,37.25,9.21,55.29,66.49,40.62,83.92Z"/>
      <ellipse class="cls-2" cx="272.3" cy="273.05" rx="119.45" ry="180.56"/>
    </g>
  </g>
</svg>